<?xml version="1.0" encoding="UTF-8" standalone="no"?>
<!DOCTYPE svg PUBLIC "-//W3C//DTD SVG 1.1//EN"
 "http://www.w3.org/Graphics/SVG/1.1/DTD/svg11.dtd">
<!-- Generated by graphviz version 2.43.0 (0)
 -->
<!-- Title: Diagram . Pages: 1 -->
<svg width="592pt" height="2124pt"
 viewBox="0.00 0.00 592.00 2124.00" xmlns="http://www.w3.org/2000/svg" xmlns:xlink="http://www.w3.org/1999/xlink">
<g id="graph0" class="graph" transform="scale(1 1) rotate(0) translate(144 1980)">
<title>Diagram .</title>
<polygon fill="white" stroke="transparent" points="-144,144 -144,-1980 448,-1980 448,144 -144,144"/>
<text text-anchor="middle" x="152" y="-9" font-family="Sans-Serif" font-size="15.00" fill="#2d3436">Diagram .</text>
<g id="clust1" class="cluster">
<title>cluster_project</title>
<path fill="#e5f5fd" stroke="#aeb6be" d="M20,-33C20,-33 284,-33 284,-33 290,-33 296,-39 296,-45 296,-45 296,-1816 296,-1816 296,-1822 290,-1828 284,-1828 284,-1828 20,-1828 20,-1828 14,-1828 8,-1822 8,-1816 8,-1816 8,-45 8,-45 8,-39 14,-33 20,-33"/>
<text text-anchor="middle" x="37" y="-1814.4" font-family="Sans-Serif" font-size="12.00" fill="#2d3436">project</text>
</g>
<g id="clust2" class="cluster">
<title>cluster_.</title>
<path fill="#ebf3e7" stroke="#aeb6be" d="M167,-385C167,-385 276,-385 276,-385 282,-385 288,-391 288,-397 288,-397 288,-1276 288,-1276 288,-1282 282,-1288 276,-1288 276,-1288 167,-1288 167,-1288 161,-1288 155,-1282 155,-1276 155,-1276 155,-397 155,-397 155,-391 161,-385 167,-385"/>
<text text-anchor="middle" x="165" y="-1274.4" font-family="Sans-Serif" font-size="12.00" fill="#2d3436">.</text>
</g>
<g id="clust3" class="cluster">
<title>cluster_src</title>
<path fill="#ece8f6" stroke="#aeb6be" d="M175,-393C175,-393 268,-393 268,-393 274,-393 280,-399 280,-405 280,-405 280,-1096 280,-1096 280,-1102 274,-1108 268,-1108 268,-1108 175,-1108 175,-1108 169,-1108 163,-1102 163,-1096 163,-1096 163,-405 163,-405 163,-399 169,-393 175,-393"/>
<text text-anchor="middle" x="180" y="-1094.4" font-family="Sans-Serif" font-size="12.00" fill="#2d3436">src</text>
</g>
<!-- 93c476d6cbd94847b9b896754421a3af -->
<g id="node1" class="node">
<title>93c476d6cbd94847b9b896754421a3af</title>
<image xlink:href="/home/fabian/dev/automate-architecture/venv/lib/python3.7/site-packages/resources/generic/storage/storage.png" width="101px" height="101px" preserveAspectRatio="xMinYMin meet" x="16" y="-1420.5"/>
<text text-anchor="middle" x="66.5" y="-1305.1" font-family="Sans-Serif" font-size="13.00" fill="#2d3436">os</text>
</g>
<!-- 01520fb30ff643bfbba016a306306143 -->
<g id="node2" class="node">
<title>01520fb30ff643bfbba016a306306143</title>
<image xlink:href="/home/fabian/dev/automate-architecture/venv/lib/python3.7/site-packages/resources/programming/language/python.png" width="101px" height="101px" preserveAspectRatio="xMinYMin meet" x="171" y="-1240.5"/>
<text text-anchor="middle" x="221.5" y="-1125.1" font-family="Sans-Serif" font-size="13.00" fill="#2d3436">main.py</text>
</g>
<!-- 93c476d6cbd94847b9b896754421a3af&#45;&gt;01520fb30ff643bfbba016a306306143 -->
<g id="edge1" class="edge">
<title>93c476d6cbd94847b9b896754421a3af&#45;&gt;01520fb30ff643bfbba016a306306143</title>
<path fill="none" stroke="#7b8894" d="M117.09,-1339.64C138.59,-1324.01 152.9,-1306.32 176.59,-1267.34"/>
<polygon fill="#7b8894" stroke="#7b8894" points="179.64,-1269.06 181.79,-1258.69 173.64,-1265.45 179.64,-1269.06"/>
</g>
<!-- 7d32104085ad4626b0ebe25c41b8dadf -->
<g id="node7" class="node">
<title>7d32104085ad4626b0ebe25c41b8dadf</title>
<image xlink:href="/home/fabian/dev/automate-architecture/venv/lib/python3.7/site-packages/resources/programming/language/python.png" width="101px" height="101px" preserveAspectRatio="xMinYMin meet" x="171" y="-1060.5"/>
<text text-anchor="middle" x="221.5" y="-945.1" font-family="Sans-Serif" font-size="13.00" fill="#2d3436">extractor.py</text>
</g>
<!-- 93c476d6cbd94847b9b896754421a3af&#45;&gt;7d32104085ad4626b0ebe25c41b8dadf -->
<g id="edge6" class="edge">
<title>93c476d6cbd94847b9b896754421a3af&#45;&gt;7d32104085ad4626b0ebe25c41b8dadf</title>
<path fill="none" stroke="#7b8894" d="M114.95,-1301.2C142.56,-1256.79 158.28,-1213.05 197.06,-1088.79"/>
<polygon fill="#7b8894" stroke="#7b8894" points="200.51,-1089.5 200.14,-1078.91 193.83,-1087.42 200.51,-1089.5"/>
</g>
<!-- 332dbbac4b84494bb87242e20db7e015 -->
<g id="node3" class="node">
<title>332dbbac4b84494bb87242e20db7e015</title>
<image xlink:href="/home/fabian/dev/automate-architecture/venv/lib/python3.7/site-packages/resources/generic/storage/storage.png" width="101px" height="101px" preserveAspectRatio="xMinYMin meet" x="16" y="-1240.5"/>
<text text-anchor="middle" x="66.5" y="-1125.1" font-family="Sans-Serif" font-size="13.00" fill="#2d3436">pprint</text>
</g>
<!-- 332dbbac4b84494bb87242e20db7e015&#45;&gt;01520fb30ff643bfbba016a306306143 -->
<g id="edge2" class="edge">
<title>332dbbac4b84494bb87242e20db7e015&#45;&gt;01520fb30ff643bfbba016a306306143</title>
<path fill="none" stroke="#7b8894" d="M117.17,-1209.03C133.49,-1213.77 145.66,-1214.51 160.91,-1211.23"/>
<polygon fill="#7b8894" stroke="#7b8894" points="162.05,-1214.56 170.86,-1208.68 160.31,-1207.78 162.05,-1214.56"/>
</g>
<!-- c8645e45c02e4ca1b07f8ebc77bc9222 -->
<g id="node9" class="node">
<title>c8645e45c02e4ca1b07f8ebc77bc9222</title>
<image xlink:href="/home/fabian/dev/automate-architecture/venv/lib/python3.7/site-packages/resources/programming/language/python.png" width="101px" height="101px" preserveAspectRatio="xMinYMin meet" x="171" y="-880.5"/>
<text text-anchor="middle" x="221.5" y="-765.1" font-family="Sans-Serif" font-size="13.00" fill="#2d3436">plotter.py</text>
</g>
<!-- 332dbbac4b84494bb87242e20db7e015&#45;&gt;c8645e45c02e4ca1b07f8ebc77bc9222 -->
<g id="edge12" class="edge">
<title>332dbbac4b84494bb87242e20db7e015&#45;&gt;c8645e45c02e4ca1b07f8ebc77bc9222</title>
<path fill="none" stroke="#7b8894" d="M111.43,-1121.42C137.76,-1076.69 154,-1033.03 195.62,-908.07"/>
<polygon fill="#7b8894" stroke="#7b8894" points="198.96,-909.13 198.79,-898.54 192.32,-906.92 198.96,-909.13"/>
</g>
<!-- c203bd10909148fd8cc713ecab44c66d -->
<g id="node4" class="node">
<title>c203bd10909148fd8cc713ecab44c66d</title>
<image xlink:href="/home/fabian/dev/automate-architecture/venv/lib/python3.7/site-packages/resources/generic/storage/storage.png" width="101px" height="101px" preserveAspectRatio="xMinYMin meet" x="16" y="-1780.5"/>
<text text-anchor="middle" x="66.5" y="-1665.1" font-family="Sans-Serif" font-size="13.00" fill="#2d3436">src.extractor.Extractor</text>
</g>
<!-- c203bd10909148fd8cc713ecab44c66d&#45;&gt;01520fb30ff643bfbba016a306306143 -->
<g id="edge3" class="edge">
<title>c203bd10909148fd8cc713ecab44c66d&#45;&gt;01520fb30ff643bfbba016a306306143</title>
<path fill="none" stroke="#7b8894" d="M99.02,-1661.34C140.49,-1570.42 153.37,-1517.99 205.17,-1268.73"/>
<polygon fill="#7b8894" stroke="#7b8894" points="208.66,-1269.14 207.27,-1258.64 201.81,-1267.72 208.66,-1269.14"/>
</g>
<!-- 57bac188bf7243698717ac5a9149e4a3 -->
<g id="node5" class="node">
<title>57bac188bf7243698717ac5a9149e4a3</title>
<image xlink:href="/home/fabian/dev/automate-architecture/venv/lib/python3.7/site-packages/resources/generic/storage/storage.png" width="101px" height="101px" preserveAspectRatio="xMinYMin meet" x="16" y="-1600.5"/>
<text text-anchor="middle" x="66.5" y="-1485.1" font-family="Sans-Serif" font-size="13.00" fill="#2d3436">src.plotter.Plotter</text>
</g>
<!-- 57bac188bf7243698717ac5a9149e4a3&#45;&gt;01520fb30ff643bfbba016a306306143 -->
<g id="edge4" class="edge">
<title>57bac188bf7243698717ac5a9149e4a3&#45;&gt;01520fb30ff643bfbba016a306306143</title>
<path fill="none" stroke="#7b8894" d="M115.55,-1481.22C143.43,-1436.82 159.04,-1393.07 197.36,-1268.8"/>
<polygon fill="#7b8894" stroke="#7b8894" points="200.81,-1269.5 200.41,-1258.92 194.12,-1267.44 200.81,-1269.5"/>
</g>
<!-- 22de809ae2ec4fadb8613a74036b73f9 -->
<g id="node6" class="node">
<title>22de809ae2ec4fadb8613a74036b73f9</title>
<image xlink:href="/home/fabian/dev/automate-architecture/venv/lib/python3.7/site-packages/resources/generic/storage/storage.png" width="101px" height="101px" preserveAspectRatio="xMinYMin meet" x="16" y="-1060.5"/>
<text text-anchor="middle" x="66.5" y="-945.1" font-family="Sans-Serif" font-size="13.00" fill="#2d3436">re</text>
</g>
<!-- 22de809ae2ec4fadb8613a74036b73f9&#45;&gt;7d32104085ad4626b0ebe25c41b8dadf -->
<g id="edge5" class="edge">
<title>22de809ae2ec4fadb8613a74036b73f9&#45;&gt;7d32104085ad4626b0ebe25c41b8dadf</title>
<path fill="none" stroke="#7b8894" d="M117.14,-1029.32C133.06,-1033.86 145.25,-1034.35 161.1,-1030.78"/>
<polygon fill="#7b8894" stroke="#7b8894" points="162.12,-1034.12 170.91,-1028.2 160.35,-1027.35 162.12,-1034.12"/>
</g>
<!-- 52aa880473a64522b6c61e292d30f90d -->
<g id="node8" class="node">
<title>52aa880473a64522b6c61e292d30f90d</title>
<image xlink:href="/home/fabian/dev/automate-architecture/venv/lib/python3.7/site-packages/resources/generic/storage/storage.png" width="101px" height="101px" preserveAspectRatio="xMinYMin meet" x="16" y="-880.5"/>
<text text-anchor="middle" x="66.5" y="-765.1" font-family="Sans-Serif" font-size="13.00" fill="#2d3436">diagrams.Diagram</text>
</g>
<!-- 52aa880473a64522b6c61e292d30f90d&#45;&gt;c8645e45c02e4ca1b07f8ebc77bc9222 -->
<g id="edge7" class="edge">
<title>52aa880473a64522b6c61e292d30f90d&#45;&gt;c8645e45c02e4ca1b07f8ebc77bc9222</title>
<path fill="none" stroke="#7b8894" d="M117.03,-810.8C133.11,-806.16 145.3,-805.58 160.99,-809.06"/>
<polygon fill="#7b8894" stroke="#7b8894" points="160.12,-812.45 170.68,-811.58 161.88,-805.68 160.12,-812.45"/>
</g>
<!-- 556085e0a4114be8bfe3bd1eec502fd9 -->
<g id="node10" class="node">
<title>556085e0a4114be8bfe3bd1eec502fd9</title>
<image xlink:href="/home/fabian/dev/automate-architecture/venv/lib/python3.7/site-packages/resources/generic/storage/storage.png" width="101px" height="101px" preserveAspectRatio="xMinYMin meet" x="16" y="-700.5"/>
<text text-anchor="middle" x="66.5" y="-585.1" font-family="Sans-Serif" font-size="13.00" fill="#2d3436">diagrams.Cluster</text>
</g>
<!-- 556085e0a4114be8bfe3bd1eec502fd9&#45;&gt;c8645e45c02e4ca1b07f8ebc77bc9222 -->
<g id="edge8" class="edge">
<title>556085e0a4114be8bfe3bd1eec502fd9&#45;&gt;c8645e45c02e4ca1b07f8ebc77bc9222</title>
<path fill="none" stroke="#7b8894" d="M117.06,-680.76C138.09,-696.3 152.38,-714.02 176.1,-752.68"/>
<polygon fill="#7b8894" stroke="#7b8894" points="173.12,-754.53 181.31,-761.25 179.11,-750.89 173.12,-754.53"/>
</g>
<!-- 23a10032ae524618aa925e7205c7af27 -->
<g id="node11" class="node">
<title>23a10032ae524618aa925e7205c7af27</title>
<image xlink:href="/home/fabian/dev/automate-architecture/venv/lib/python3.7/site-packages/resources/generic/storage/storage.png" width="101px" height="101px" preserveAspectRatio="xMinYMin meet" x="16" y="-520.5"/>
<text text-anchor="middle" x="66.5" y="-405.1" font-family="Sans-Serif" font-size="13.00" fill="#2d3436">diagrams.programming.language.Python</text>
</g>
<!-- 23a10032ae524618aa925e7205c7af27&#45;&gt;c8645e45c02e4ca1b07f8ebc77bc9222 -->
<g id="edge9" class="edge">
<title>23a10032ae524618aa925e7205c7af27&#45;&gt;c8645e45c02e4ca1b07f8ebc77bc9222</title>
<path fill="none" stroke="#7b8894" d="M115.06,-538.79C142.72,-583.2 158.42,-626.94 197.12,-751.21"/>
<polygon fill="#7b8894" stroke="#7b8894" points="193.88,-752.58 200.19,-761.09 200.56,-750.5 193.88,-752.58"/>
</g>
<!-- 861f046d449a4f4ab01942912dc27f40 -->
<g id="node12" class="node">
<title>861f046d449a4f4ab01942912dc27f40</title>
<image xlink:href="/home/fabian/dev/automate-architecture/venv/lib/python3.7/site-packages/resources/generic/storage/storage.png" width="101px" height="101px" preserveAspectRatio="xMinYMin meet" x="16" y="-340.5"/>
<text text-anchor="middle" x="66.5" y="-225.1" font-family="Sans-Serif" font-size="13.00" fill="#2d3436">diagrams.generic.storage.Storage</text>
</g>
<!-- 861f046d449a4f4ab01942912dc27f40&#45;&gt;c8645e45c02e4ca1b07f8ebc77bc9222 -->
<g id="edge10" class="edge">
<title>861f046d449a4f4ab01942912dc27f40&#45;&gt;c8645e45c02e4ca1b07f8ebc77bc9222</title>
<path fill="none" stroke="#7b8894" d="M98.71,-358.66C139.82,-449.59 152.75,-502.03 205.02,-751.27"/>
<polygon fill="#7b8894" stroke="#7b8894" points="201.66,-752.3 207.14,-761.37 208.52,-750.86 201.66,-752.3"/>
</g>
<!-- 36758eba99d94ebeb38ba10e0f6bf449 -->
<g id="node13" class="node">
<title>36758eba99d94ebeb38ba10e0f6bf449</title>
<image xlink:href="/home/fabian/dev/automate-architecture/venv/lib/python3.7/site-packages/resources/generic/storage/storage.png" width="101px" height="101px" preserveAspectRatio="xMinYMin meet" x="16" y="-160.5"/>
<text text-anchor="middle" x="66.5" y="-45.1" font-family="Sans-Serif" font-size="13.00" fill="#2d3436">re.search</text>
</g>
<!-- 36758eba99d94ebeb38ba10e0f6bf449&#45;&gt;c8645e45c02e4ca1b07f8ebc77bc9222 -->
<g id="edge11" class="edge">
<title>36758eba99d94ebeb38ba10e0f6bf449&#45;&gt;c8645e45c02e4ca1b07f8ebc77bc9222</title>
<path fill="none" stroke="#7b8894" d="M90.53,-178.7C139.37,-320.65 149.84,-376.63 209.08,-751.36"/>
<polygon fill="#7b8894" stroke="#7b8894" points="205.65,-752.07 210.67,-761.4 212.57,-750.98 205.65,-752.07"/>
</g>
<!-- 619e43646b264960abbd00241d878dc3 -->
<g id="node14" class="node">
<title>619e43646b264960abbd00241d878dc3</title>
<image xlink:href="/home/fabian/dev/automate-architecture/venv/lib/python3.7/site-packages/resources/programming/language/python.png" width="101px" height="101px" preserveAspectRatio="xMinYMin meet" x="171" y="-700.5"/>
<text text-anchor="middle" x="221.5" y="-585.1" font-family="Sans-Serif" font-size="13.00" fill="#2d3436">generator.py</text>
</g>
<!-- b9f74e1c8d7044d3b47f2c1727bcbf7c -->
<g id="node15" class="node">
<title>b9f74e1c8d7044d3b47f2c1727bcbf7c</title>
<image xlink:href="/home/fabian/dev/automate-architecture/venv/lib/python3.7/site-packages/resources/programming/language/python.png" width="101px" height="101px" preserveAspectRatio="xMinYMin meet" x="171" y="-520.5"/>
<text text-anchor="middle" x="221.5" y="-405.1" font-family="Sans-Serif" font-size="13.00" fill="#2d3436">__init__.py</text>
</g>
</g>
</svg>
